<svg width="36" height="29" viewBox="0 0 36 29" fill="none" xmlns="http://www.w3.org/2000/svg">
<g clip-path="url(#clip0_564_85433)" filter="url(#filter0_d_564_85433)">
<mask id="path-1-outside-1_564_85433" maskUnits="userSpaceOnUse" x="4.38477" y="4.30933" width="27" height="18" fill="black">
<rect fill="white" x="4.38477" y="4.30933" width="27" height="18"/>
<path d="M8.50114 5.30933C7.67463 5.30933 6.88196 5.62398 6.29753 6.18406C5.7131 6.74414 5.38477 7.50378 5.38477 8.29585V18.2509C5.38477 19.043 5.7131 19.8026 6.29753 20.3627C6.88196 20.9228 7.67463 21.2375 8.50114 21.2375H18.8891C19.7156 21.2375 20.5082 20.9228 21.0927 20.3627C21.6771 19.8026 22.0054 19.043 22.0054 18.2509V8.29585C22.0054 7.50378 21.6771 6.74414 21.0927 6.18406C20.5082 5.62398 19.7156 5.30933 18.8891 5.30933H8.50114ZM30.3158 6.30483C30.3156 6.10807 30.2546 5.91577 30.1404 5.75222C30.0263 5.58867 29.8641 5.46121 29.6744 5.38593C29.4847 5.31066 29.276 5.29094 29.0746 5.32928C28.8732 5.36762 28.6882 5.46229 28.5429 5.60134L21.9435 9.58338C21.7486 9.76989 15.9359 10.0229 15.9356 10.2869V16.2599C15.9356 16.5241 21.7482 16.7776 21.9435 16.9634L28.5429 20.9454C28.6882 21.0845 28.8732 21.1792 29.0746 21.2175C29.276 21.2558 29.4847 21.2361 29.6744 21.1609C29.8641 21.0856 30.0263 20.9581 30.1404 20.7946C30.2546 20.631 30.3156 20.4387 30.3158 20.242V6.30483Z"/>
</mask>
<path d="M8.50114 5.30933C7.67463 5.30933 6.88196 5.62398 6.29753 6.18406C5.7131 6.74414 5.38477 7.50378 5.38477 8.29585V18.2509C5.38477 19.043 5.7131 19.8026 6.29753 20.3627C6.88196 20.9228 7.67463 21.2375 8.50114 21.2375H18.8891C19.7156 21.2375 20.5082 20.9228 21.0927 20.3627C21.6771 19.8026 22.0054 19.043 22.0054 18.2509V8.29585C22.0054 7.50378 21.6771 6.74414 21.0927 6.18406C20.5082 5.62398 19.7156 5.30933 18.8891 5.30933H8.50114ZM30.3158 6.30483C30.3156 6.10807 30.2546 5.91577 30.1404 5.75222C30.0263 5.58867 29.8641 5.46121 29.6744 5.38593C29.4847 5.31066 29.276 5.29094 29.0746 5.32928C28.8732 5.36762 28.6882 5.46229 28.5429 5.60134L21.9435 9.58338C21.7486 9.76989 15.9359 10.0229 15.9356 10.2869V16.2599C15.9356 16.5241 21.7482 16.7776 21.9435 16.9634L28.5429 20.9454C28.6882 21.0845 28.8732 21.1792 29.0746 21.2175C29.276 21.2558 29.4847 21.2361 29.6744 21.1609C29.8641 21.0856 30.0263 20.9581 30.1404 20.7946C30.2546 20.631 30.3156 20.4387 30.3158 20.242V6.30483Z" fill="white"/>
<path d="M8.50114 5.30933V4.30933V5.30933ZM5.38477 8.29585H4.38477H5.38477ZM5.38477 18.2509H4.38477H5.38477ZM30.3158 6.30483H31.3158L31.3158 6.30392L30.3158 6.30483ZM28.5429 5.60134L29.0595 6.45755C29.1226 6.41952 29.1812 6.37465 29.2344 6.32376L28.5429 5.60134ZM21.9435 9.58338L21.4269 8.72717C21.3639 8.76519 21.3052 8.81006 21.2521 8.86096L21.9435 9.58338ZM15.9356 10.2869L14.9356 10.286V10.2869H15.9356ZM21.9435 16.9634L21.2542 17.6879C21.3068 17.7379 21.3647 17.7821 21.4269 17.8196L21.9435 16.9634ZM28.5429 20.9454L29.2344 20.223C29.1812 20.1721 29.1226 20.1273 29.0595 20.0892L28.5429 20.9454ZM30.3158 20.242L31.3158 20.2429V20.242H30.3158ZM8.50114 4.30933C7.42282 4.30933 6.38054 4.71944 5.60563 5.46207L6.98944 6.90605C7.38339 6.52851 7.92644 6.30933 8.50114 6.30933V4.30933ZM5.60563 5.46207C4.82926 6.20609 4.38477 7.22449 4.38477 8.29585H6.38477C6.38477 7.78306 6.59693 7.2822 6.98944 6.90605L5.60563 5.46207ZM4.38477 8.29585V18.2509H6.38477V8.29585H4.38477ZM4.38477 18.2509C4.38477 19.3223 4.82926 20.3407 5.60563 21.0847L6.98944 19.6407C6.59693 19.2646 6.38477 18.7637 6.38477 18.2509H4.38477ZM5.60563 21.0847C6.38054 21.8273 7.42282 22.2375 8.50114 22.2375V20.2375C7.92644 20.2375 7.38339 20.0183 6.98944 19.6407L5.60563 21.0847ZM8.50114 22.2375H18.8891V20.2375H8.50114V22.2375ZM18.8891 22.2375C19.9674 22.2375 21.0097 21.8273 21.7846 21.0847L20.4008 19.6407C20.0068 20.0183 19.4638 20.2375 18.8891 20.2375V22.2375ZM21.7846 21.0847C22.5609 20.3407 23.0054 19.3223 23.0054 18.2509H21.0054C21.0054 18.7637 20.7933 19.2646 20.4008 19.6407L21.7846 21.0847ZM23.0054 18.2509V8.29585H21.0054V18.2509H23.0054ZM23.0054 8.29585C23.0054 7.22449 22.5609 6.20609 21.7846 5.46207L20.4008 6.90605C20.7933 7.2822 21.0054 7.78306 21.0054 8.29585H23.0054ZM21.7846 5.46207C21.0097 4.71944 19.9674 4.30933 18.8891 4.30933V6.30933C19.4638 6.30933 20.0068 6.52851 20.4008 6.90605L21.7846 5.46207ZM18.8891 4.30933H8.50114V6.30933H18.8891V4.30933ZM31.3158 6.30392C31.3154 5.89979 31.1899 5.50857 30.9604 5.17986L29.3204 6.32457C29.32 6.32399 29.3188 6.32202 29.3177 6.31853C29.3166 6.31503 29.3158 6.31063 29.3158 6.30575L31.3158 6.30392ZM30.9604 5.17986C30.7314 4.85172 30.4106 4.6022 30.0432 4.45644L29.3056 6.31543C29.3176 6.32021 29.3211 6.32562 29.3204 6.32457L30.9604 5.17986ZM30.0432 4.45644C29.6762 4.31079 29.2746 4.27324 28.8876 4.34693L29.2616 6.31164C29.2773 6.30864 29.2932 6.31052 29.3056 6.31543L30.0432 4.45644ZM28.8876 4.34693C28.5004 4.42064 28.1391 4.60361 27.8514 4.87892L29.2344 6.32376C29.2373 6.32098 29.246 6.3146 29.2616 6.31164L28.8876 4.34693ZM28.0263 4.74513L21.4269 8.72717L22.4601 10.4396L29.0595 6.45755L28.0263 4.74513ZM21.2521 8.86096C21.3464 8.77067 21.4358 8.72193 21.4739 8.7024C21.5191 8.67921 21.5553 8.66554 21.5734 8.6591C21.6088 8.64647 21.6294 8.64237 21.6214 8.6442C21.6081 8.64722 21.5675 8.65506 21.4885 8.66631C21.3352 8.68813 21.1114 8.71257 20.8285 8.7393C20.2651 8.79254 19.5319 8.84898 18.7859 8.90935C18.0494 8.96895 17.2996 9.03244 16.7315 9.09853C16.4518 9.13107 16.1889 9.16725 15.9858 9.20874C15.8915 9.22799 15.7637 9.25738 15.642 9.30417C15.5871 9.32532 15.4724 9.37246 15.3539 9.46099C15.268 9.52515 14.9361 9.79254 14.9356 10.286L16.9356 10.2878C16.9352 10.7647 16.6146 11.0156 16.5508 11.0633C16.4543 11.1354 16.3723 11.1661 16.36 11.1709C16.3236 11.1849 16.3209 11.1816 16.386 11.1683C16.5015 11.1447 16.6943 11.1163 16.9626 11.0851C17.4905 11.0237 18.2062 10.9628 18.9472 10.9028C19.6789 10.8436 20.4354 10.7853 21.0167 10.7304C21.3061 10.7031 21.5685 10.6751 21.7704 10.6463C21.869 10.6323 21.9732 10.6153 22.0665 10.594C22.1118 10.5837 22.176 10.5676 22.2449 10.543C22.2742 10.5325 22.4637 10.4697 22.635 10.3058L21.2521 8.86096ZM14.9356 10.2869V16.2599H16.9356V10.2869H14.9356ZM14.9356 16.2599C14.9356 16.7532 15.2671 17.0209 15.3533 17.0854C15.4719 17.1741 15.5866 17.2213 15.6416 17.2425C15.7633 17.2894 15.8912 17.3188 15.9855 17.3381C16.1886 17.3796 16.4515 17.4159 16.7312 17.4484C17.2993 17.5146 18.0491 17.5781 18.7856 17.6378C19.5316 17.6982 20.2648 17.7546 20.8284 17.8078C21.1113 17.8345 21.3352 17.8589 21.4887 17.8807C21.5677 17.892 21.6085 17.8998 21.622 17.9029C21.6301 17.9047 21.6097 17.9007 21.5745 17.8882C21.5566 17.8818 21.5205 17.8683 21.4755 17.8453C21.4376 17.8259 21.3485 17.7776 21.2542 17.6879L22.6329 16.239C22.4618 16.0762 22.2729 16.0138 22.2436 16.0034C22.175 15.979 22.111 15.963 22.0658 15.9527C21.9726 15.9315 21.8685 15.9146 21.7699 15.9006C21.5681 15.8719 21.3058 15.844 21.0164 15.8167C20.4352 15.7618 19.6786 15.7035 18.947 15.6443C18.206 15.5843 17.4904 15.5233 16.9626 15.4619C16.6943 15.4306 16.5015 15.4022 16.3861 15.3786C16.3211 15.3653 16.3238 15.3621 16.3603 15.3761C16.3727 15.3809 16.4548 15.4117 16.5513 15.4839C16.6155 15.5319 16.9356 15.7831 16.9356 16.2599H14.9356ZM21.4269 17.8196L28.0263 21.8017L29.0595 20.0892L22.4601 16.1072L21.4269 17.8196ZM27.8514 21.6679C28.1391 21.9432 28.5004 22.1262 28.8876 22.1999L29.2616 20.2352C29.246 20.2322 29.2373 20.2258 29.2344 20.223L27.8514 21.6679ZM28.8876 22.1999C29.2746 22.2736 29.6762 22.236 30.0432 22.0904L29.3056 20.2314C29.2932 20.2363 29.2773 20.2381 29.2616 20.2352L28.8876 22.1999ZM30.0432 22.0904C30.4106 21.9446 30.7314 21.6951 30.9604 21.3669L29.3204 20.2222C29.3211 20.2212 29.3176 20.2266 29.3056 20.2314L30.0432 22.0904ZM30.9604 21.3669C31.1899 21.0382 31.3154 20.647 31.3158 20.2429L29.3158 20.241C29.3158 20.2362 29.3166 20.2318 29.3177 20.2283C29.3188 20.2248 29.32 20.2228 29.3204 20.2222L30.9604 21.3669ZM31.3158 20.242V6.30483H29.3158V20.242H31.3158Z" fill="black" mask="url(#path-1-outside-1_564_85433)"/>
</g>
<defs>
<filter id="filter0_d_564_85433" x="0" y="-2" width="35.7012" height="34.5469" filterUnits="userSpaceOnUse" color-interpolation-filters="sRGB">
<feFlood flood-opacity="0" result="BackgroundImageFix"/>
<feColorMatrix in="SourceAlpha" type="matrix" values="0 0 0 0 0 0 0 0 0 0 0 0 0 0 0 0 0 0 127 0" result="hardAlpha"/>
<feOffset dy="2"/>
<feGaussianBlur stdDeviation="2"/>
<feComposite in2="hardAlpha" operator="out"/>
<feColorMatrix type="matrix" values="0 0 0 0 0.10835 0 0 0 0 0.10835 0 0 0 0 0.10835 0 0 0 0.2 0"/>
<feBlend mode="normal" in2="BackgroundImageFix" result="effect1_dropShadow_564_85433"/>
<feBlend mode="normal" in="SourceGraphic" in2="effect1_dropShadow_564_85433" result="shape"/>
</filter>
<clipPath id="clip0_564_85433">
<rect width="27.7011" height="26.5469" fill="white" transform="translate(4)"/>
</clipPath>
</defs>
</svg>
